# xmcd CD database file
#
# Track frame offsets:
#	150
#	37875
#	64234
#	92920
#
# Disc length: 1593 seconds
#
# Revision: 0
# Processed by: cddbd v1.5.1PL2 Copyright (c) Steve Scherf et al.
# Submitted via: CDex 1.51
#
DISCID=2d063704
DTITLE=908 - coloration - EP.
DYEAR=2006
DGENRE=Techno
TTITLE0=monomini
TTITLE1=crimson loop
TTITLE2=kleinblue
TTITLE3=azuresky
EXTD=YEAR: 2006
EXTT0=
EXTT1=
EXTT2=
EXTT3=
PLAYORDER=
